<?xml version="1.0" encoding="UTF-8"?>
<svg width="397.6pt" height="472.45pt" version="1.0" viewBox="0 0 397.6 472.45" xmlns="http://www.w3.org/2000/svg">
 <g transform="matrix(.1 0 0 -.1 -22 1004.2)">
  <path d="m1703 10033c-13-2-23-9-23-14 0-6-34-99-76-207s-79-205-81-214c-5-16 3-18 65-18 88 0 99 4 117 46l14 34h142l15-36 15-37 61 7c34 3 73 6 89 6h27l-96 208c-54 114-101 213-105 220-8 12-112 15-164 5zm234-218 91-196-61 3c-60 3-62 4-71 36-9 31-10 32-65 31-31 0-76-4-100-7-40-6-46-11-53-39-8-32-10-33-64-33-49 0-55 2-49 18 11 29 135 356 140 370 3 8 27 12 73 12h68z"/>
  <path d="m1770 9958c0-9-13-59-30-113-16-54-30-99-30-100 0-3 144 6 147 9 3 2-77 209-83 215-2 2-4-3-4-11zm44-165c7-20 4-23-23-23-40 0-45 12-26 57l16 38 13-25c8-14 17-35 20-47z"/>
  <path d="m2313 9982c-11-68-15-64 80-77 26-4 49-11 52-15 4-6-11-94-30-180-21-94-23-115-12-126 12-11 146-38 153-31 2 2 16 71 32 153l27 149 49-3c26-2 59-7 72-12 26-10 31-6 38 36 3 16 8 41 12 57 3 15 1 27-4 27-10 0-309 56-352 66-14 3-43 8-66 11l-41 5zm299-17c92-18 145-32 143-39-2-6-6-23-9-37l-6-26-57 13c-94 22-86 32-118-138-16-84-30-155-31-156-1-2-27 1-56 7l-54 12 27 142c16 78 28 149 29 158 0 12-16 19-66 27-37 6-69 13-71 16-3 3-3 20 1 39l6 34 58-12c31-7 123-25 204-40z"/>
  <path d="m3162 9914c-132-65-178-219-100-331 36-53 115-117 164-133 54-18 174 4 174 32 0 5-18 36-40 69l-41 59-29-15c-16-8-36-15-45-15-24 0-75 55-75 80 0 28 47 94 82 114 37 23 62 20 98-11 27-23 31-31 27-59-5-32-3-35 52-69 32-19 63-35 69-35 27 0 29 117 3 168-42 81-174 172-252 172-19 0-59-12-87-26zm213-48c77-53 115-114 115-183v-54l-42 25c-33 20-43 32-44 54-2 41-20 70-57 92-41 25-71 25-113 0-38-24-94-104-94-134 0-65 79-123 141-106 19 6 34 10 35 10s13-18 28-40l26-40-25-10c-39-15-102-12-137 6-46 24-117 93-139 136-36 71-18 151 49 222 50 52 86 67 149 63 41-3 65-12 108-41z"/>
  <path d="m1040 9679c-118-16-112-11-126-111-4-24-8-52-9-63-2-11-4-28-4-37-2-37-18-15-56 72-21 50-42 93-47 96-5 4-54 1-109-6-116-14-108 1-83-170 20-140 23-158 29-205 9-72 12-80 26-78 8 1 40 4 72 8 33 4 57 11 57 18 0 12-15 115-25 170-8 50 10 28 44-50 52-123 50-121 116-112 31 4 58 9 60 11 4 4 15 72 24 146 6 49 24 73 27 35 1-10 5-43 9-73s8-64 9-75c1-15 8-20 31-19 44 1 105 11 111 17 3 3-7 90-21 193-29 208-32 226-34 237-1 8-12 8-101-4zm102-211c14-106 25-194 25-194-1-1-20-5-42-8l-41-7-18 133c-22 165-25 178-42 178-16 0-18-8-43-183-11-77-21-140-23-142s-20-5-41-7l-37-3-65 144c-36 79-66 146-68 148s-11 1-18-2c-13-5-12-28 7-158 13-83 22-152 21-153s-20-4-43-6l-41-6-27 190c-15 105-24 193-21 197 4 3 40 11 81 16l73 11 65-144c73-164 64-167 92 40l17 127 46 6c25 4 51 8 56 10 6 2 21 4 35 4l26 1zm-114 7c0-14-4-25-9-25-10 0-11 12-3 34 9 22 12 20 12-9zm-258-55c0-5-2-10-4-10-3 0-8 5-11 10-3 6-1 10 4 10 6 0 11-4 11-10z"/>
  <path d="m2620 9481c0-6 4-13 10-16s7 1 4 9c-7 18-14 21-14 7z"/>
  <path d="m3589 9339c-1-9-26-444-25-445s41-4 89-7l88-6-1 32c-1 18-2 56-1 85l1 53 68-3 67-3-4-87-3-88h86c47 0 86 1 87 3 2 4 27 432 25 433 0 1-41 4-89 8l-89 6 2-32c1-18 2-52 1-75l-1-43h-39c-21 0-52 3-70 6l-31 6 7 74c6 74 6 74-19 74-14 0-53 3-87 6-33 4-61 5-62 3zm118-35c22-6 22-10 16-80l-6-74h79c43 0 89-3 102-6 21-6 22-4 22 70v76h61c58 0 61-1 56-22-3-13-9-103-13-200-5-130-10-178-19-178-7 0-33 3-59 6l-46 7 6 82 7 82-54 6c-30 4-75 7-101 7h-48v-170h-54c-30 0-57 3-59 8-2 4 0 59 4 122s8 150 10 193l2 77h36c20 0 46-3 58-6z"/>
  <path d="m2928 9031c-43-29-66-51-63-61 2-8 11-41 20-72l16-57 164 4 3-31c4-39-33-86-92-116-37-20-54-21-171-18-284 7-297 7-344-17-46-23-71-18-71 14 0 20-39 94-64 121-52 58-153 79-228 48-19-8-56-38-83-67l-49-52-45 13c-25 7-53 14-61 17-19 5-84-101-76-124 3-8 23-37 44-64 40-53 49-55 144-26l36 11-3 65c-3 56-1 66 18 82 12 10 38 18 58 19 48 0 64-24 79-126 6-43 18-105 26-137 12-46 13-65 4-93-17-50-50-186-50-205 0-18-70-78-112-96-15-7-28-17-28-23 0-33-109 5-229 81-44 27-64 34-106 34-44 0-58-5-96-35-94-76-162-102-321-126-62-9-115-18-117-20-3-2 8-17 23-33l27-28-23-7c-57-15-64-10-145 108-43 63-113 153-156 200-63 69-84 86-104 84-21-3-28 5-50 57-17 40-28 90-34 150-8 97-59 274-84 295-29 24-44 4-47-62l-3-63-19 40c-37 81-54 121-60 141-4 12-18 34-31 48-20 21-29 25-44 17-14-8-23-6-36 9-26 29-55 26-55-5 0-25-23-35-35-15-9 14-25 3-25-17 0-9 25-69 55-134 30-64 55-122 55-128 0-16 17-13 24 4 3 9-18 58-48 113-66 118-75 145-49 140 10-2 28-24 42-53 37-78 102-187 108-181 3 3-8 27-25 53-35 56-82 172-82 202 0 50 38 9 64-69 25-71 76-174 83-166 4 3-5 27-19 53-54 103-72 193-35 181 6-3 21-27 31-54 51-131 73-176 93-190 23-14 32-54 13-54-6 0-18-16-27-35-13-27-14-38-5-47s12-8 12 4c0 9 10 29 23 45 34 40 36 53 23 108-14 53-10 98 8 92 19-6 64-186 65-259 1-69 36-182 69-220 13-16 10-22-34-61l-48-44-90 88c-49 49-92 89-97 89-4 0-28 28-52 63-46 64-117 230-139 324-13 54-28 71-28 31 0-12 16-73 36-134 51-161 112-258 234-369 36-32 75-73 88-89l22-30-24-25c-96-105-251-418-272-552-4-24-13-50-21-57-17-18-17-51 2-72 13-14 12-22-4-66-10-27-21-82-23-122-7-99 7-117 89-117 70 1 146 21 168 45 12 14 13 23 5 45-16 42-95 150-127 173-22 16-27 28-28 62l-1 42 55-6c114-12 295-18 604-20l318-2 4-74c2-41 7-100 13-130 5-30 26-152 47-270 20-118 45-239 54-267l18-53-23-15c-13-8-32-32-43-53-16-32-28-40-78-56-164-51-212-76-281-144-141-140-282-291-282-303 0-11 5-10 69 7 16 5 22 3 20-5-7-21-166-146-248-194l-82-49-35 17c-41 19-75 14-104-17s-25-62 11-92c41-35 73-33 112 5l31 32 61-11c60-11 182-25 220-26 47 0 144 18 193 36 29 11 55 18 58 15 2-2 0-16-6-31-13-35-13-103 0-184 11-63 11-63-20-92-37-35-39-72-5-105 30-31 54-31 90-3 24 19 27 26 22 63l-6 41 77 61c78 62 186 170 254 253 41 50 38 54 63-70 9-47 32-123 51-169l34-85-22-23c-68-73 37-169 107-98 30 29 32 56 5 80-11 10-20 21-20 25s24 44 53 88c30 45 65 102 78 127s27 45 30 45 32-33 63-74c62-80 166-184 234-231 37-26 42-34 38-58-16-82 88-126 122-51 15 30-2 81-30 90-18 5-19 11-11 67 4 34 8 110 8 169v107l30-28c64-60 180-126 265-150 25-7 56-17 70-22 39-13 221-48 264-51 35-3 42-8 60-42 28-52 55-61 98-33 39 27 49 74 23 113-12 18-24 24-53 24-21 0-43-5-49-11-22-22-303 289-303 333 0 5 8 8 18 6 40-6 43 11 11 74-59 116-131 200-292 338-59 52-112 101-118 111-5 10-9 34-9 53 0 26-7 42-24 57-21 19-23 25-14 57 28 101 99 214 204 325l65 68 48-53c26-29 70-80 98-113 117-142 441-474 560-575l89-75-1-65c-1-36-6-74-12-85-17-32-34-192-23-221 22-57 215-103 258-61 14 14 13 22-7 84-21 64-91 214-111 238-5 6-7 21-3 33 3 14-1 30-12 42-17 18-15 24 37 132 117 240 170 423 180 613l3 50 37-3c96-9 233 45 373 146 84 61 89 67 131 179 29 78 27 98-9 112-14 5-27 17-30 25-11 28-51 17-117-34-117-90-120-92-120-78 0 7 7 22 15 32 19 25 19 37 1 61-13 18-19 16-110-54-53-40-117-97-142-127-26-30-50-54-55-54s-14 11-19 24c-14 39-40 46-142 41-103-6-359-34-370-42-5-2-8-8-8-12 0-9 60-5 197 14 76 10 91 10 82-1-36-44-89-192-132-374-34-142-45-226-43-342 1-54-1-98-4-98-18 1-358 363-460 490-24 30-64 77-89 103-46 47-46 48-47 120-1 40-4 80-9 90-13 31-26 18-24-25 3-56-17-93-97-180-67-73-108-129-139-188-74-145-95-190-95-203 0-9-14-17-37-21-58-10-233-19-233-12 0 3 5 15 11 25 15 23 4 68-19 80-13 7-27 5-47-5-26-14-33-13-66 2-34 15-48 36-49 72 0 8 17 12 53 12 41 0 58-5 72-20 26-29 73-26 87 5 24 54-32 102-89 76-21-10-33-8-74 10-33 15-49 29-49 41 0 16 9 18 69 18 52 0 70-4 75-15 7-19 51-36 70-29 22 8 38 62 26 85-18 32-47 42-79 26-26-13-33-12-90 16-53 25-62 33-59 54 2 13 6 23 11 23h76c65 0 69-1 75-25 3-13 15-29 26-35 17-9 28-5 63 23 23 18 61 45 85 60 23 15 42 33 42 40 0 6-11 30-25 52-13 22-25 46-25 53 0 22 39 52 69 52 16 0 31 6 34 13 2 6 12-4 21-23l17-35-21 25-22 25 6-25c3-14 6-39 6-57 0-27 7-36 63-71 34-21 76-46 94-56 32-16 32-16 47 12 8 15 27 65 42 110 23 69 26 85 16 107-7 14-16 23-22 20-5-3-23 1-40 10-29 15-31 19-28 63l3 47 47 3c61 4 78-18 78-105 0-56 2-63 28-80 25-18 111-54 159-68 19-5 23-1 29 29 7 39 2 191-7 200-3 3-25 8-49 11-53 7-56 9-62 40-9 45 72 87 99 53 6-7 15-26 20-43 6-21 24-38 59-57 27-15 89-65 138-111 71-67 88-88 82-103-13-34-20-154-9-154s23 32 23 65c0 11 6 31 13 45 10 18 11 32 3 50-17 40-84 128-107 141-29 15-15 24 59 39 34 7 65 16 67 20s-19 15-47 24c-69 22-110 55-158 126-61 89-97 113-176 114-60 1-65 3-82 31-11 17-26 36-35 44-21 17-22 35-2 27 23-8 43 3 49 29 5 20 10 22 49 18 55-6 81 14 110 86 27 65 59 91 127 102 71 11 115-5 152-58 24-33 31-53 33-101 2-33-2-70-8-83-11-20-18-23-67-20l-55 2-19-53c-10-29-21-58-23-64s21-33 52-59l56-48 59 28c33 16 60 30 60 31s-7 30-16 63l-15 62 45 60c46 61 46 61 46 142 0 102-19 147-96 227-49 51-57 66-60 105-2 25-11 65-20 90l-15 46 44 52c63 75 82 106 101 161 31 96 12 217-44 271-35 34-36 39-11 108l18 53-61 41-62 40zm82-44c12-44 11-49-6-61-18-13-38-4-112 49-2 2 19 19 45 38 26 20 51 33 54 29s12-29 19-55zm46 29 35-24-28-22c-15-12-28-18-30-13-1 4-6 25-12 46-5 20-7 37-5 37 3 0 21-11 40-24zm-114-133c-30-25-32-23-47 45l-7 33 41-28 40-28zm122 31c-21-50-20-49-41-33-9 8-14 9-10 3 4-8-5-14-26-17-17-2-33-3-35-2-1 1 25 23 59 49 35 25 64 44 66 42 2-1-4-20-13-42zm-828-90c51-24 92-72 115-133 34-92 55-103 119-62 21 14 55 16 221 13 181-2 202-1 256 19 36 14 74 38 101 64 44 44 50 41 31-16-28-83-114-136-259-158-116-18-118-19-166-63-43-39-45-40-59-22-8 10-15 23-15 27s-21 17-46 29c-60 26-110 20-176-22-28-17-53-29-55-26-3 2-15 44-27 93-27 105-45 142-86 177-36 30-65 39-106 34l-29-4 28-7c15-4 38-9 52-12 45-9 96-78 109-145 4-19 16-65 28-103 19-62 19-69 5-85-55-60-102-245-93-360 19-228 19-246-1-265-11-9-33-20-50-23-25-5-33-2-42 15-7 12-16 21-22 21s-6-7 1-20c8-15 6-21-10-30-20-11-28-40-11-40 5 0 12-10 16-22 6-20 8-21 12-5 3 10-1 24-7 32-10 12-9 16 5 21 11 4 27-4 48-24 45-42 134-89 187-97 72-12 92-23 40-23-26 0-86 15-140 35-52 19-107 36-122 38-16 2-40 18-58 39-18 20-41 36-53 36-20 0-20-1 4-26 13-15 36-34 51-43l27-17-32-25c-18-14-53-33-79-43-58-22-78-48-113-151-14-44-56-131-92-192-36-62-66-113-67-113s-1 12-1 28c-1 15-4 45-8 67-8 40-8 41 37 62 78 38 100 94 63 163-19 37-30 46-58 51-60 9-119-36-119-92 0-34-41-50-108-42l-47 5 5 77 5 76 43 6c58 7 102 50 102 98-1 55-39 91-95 91-32 0-85-50-85-80 0-21-3-22-72-17-40 3-74 6-75 6 0 1 11 34 27 74l28 72 55-3c47-3 58 0 76 19 26 28 40 77 31 104-4 11-23 28-43 38-35 18-37 17-75-2-21-11-44-27-51-35-19-23-41-20-85 10-52 36-51 36 126 60 45 6 149 54 207 95 30 22 72 44 93 49 36 10 44 8 140-45 56-32 126-62 156-68 50-11 58-16 86-59 44-68 59-59 22 12-24 46-28 62-19 71 18 18 39-4 47-46 4-19 12-35 18-35 7 0 9 21 4 65-6 64-6 64 23 79 29 16 31 21 46 111 4 22 18 75 32 119 24 76 24 81 10 135-9 31-21 88-27 126-14 84-33 128-63 144s-77 17-106 2c-38-21-33-7 13 38 67 66 138 85 202 55zm884-46c46-101 16-224-80-333-33-38-60-75-60-84s7-52 15-96 14-81 15-83c0-1 27-32 61-68 78-84 98-129 99-217 0-72-15-117-51-156-11-11-17-21-14-21s3-5 0-10c-4-6-11-8-16-4-6 4-5 12 4 22 38 42 41 177 8 256-31 70-109 113-223 123-38 3-68 9-68 12s7 26 16 51c21 59 12 120-23 170-37 50-56 62-128 75l-60 11 50 36c33 24 69 40 110 48 203 40 271 76 311 166 25 57 31 104 14 104-5 0-10 9-10 20 0 31 9 24 30-22zm-1230-88c0-7-72-32-77-27-1 2 7 18 18 36 19 32 21 33 40 16 10-10 19-21 19-25zm90-36c0-24-2-44-4-44-4 0-86 107-86 113 0 2 20-2 45-11 44-14 45-15 45-58zm-57-4c7-12 1-28-20-62l-30-47-24 32c-54 70-53 64-6 80 50 18 66 18 80-3zm50-80c-9-8-75-31-78-28-2 2 9 21 23 42l25 40 19-24c10-13 15-26 11-30zm576-86c17-14 35-40 39-57 8-30 11-32 63-37 62-6 107-33 138-84 67-107-41-294-217-378-49-24-81-31-148-36-104-6-150 11-191 72-26 38-28 48-28 141 1 107 19 177 71 267 36 65 55 84 104 112 62 35 127 35 169 0zm-1758-250 34-37-56 7c-74 8-92-5-79-58 5-22 7-43 5-47-3-3-27-9-55-12-77-9-75-6-54-120 2-11-5-21-19-26-63-24-117-39-117-34 0 14 133 203 172 243 31 33 124 116 134 120 0 0 16-16 35-36zm44-54c3-4-13-20-34-35-66-45-193-220-259-357-42-86-82-199-82-229 0-20-28-33-44-20-6 5-26 9-44 9-54-2-57 10-27 106 30 101 90 236 103 236 15 0 64-70 59-83-2-7-26-23-53-36-27-14-52-29-55-34-4-5 2-24 12-41 28-45 24-58-28-89-25-15-43-30-40-33 6-7 103 42 112 56 3 5-3 30-14 54l-19 45 54 31c61 34 67 53 32 101-26 35-19 43 43 53 51 8 65 33 50 91-6 24-11 46-11 49s18 6 41 6c65 0 81 14 79 68-1 26-1 50-1 55 1 9 120 7 126-3zm37-25c3-3-23-34-57-68-106-106-264-369-295-492-14-55-23-70-38-61-11 7 42 166 84 247 44 88 144 228 218 306 67 71 77 79 88 68zm100-137c40-57 91-130 112-163 48-73 45-70 52-63 3 4-2 20-10 37-23 44-21 49 30 57 35 5 54 3 74-10 43-25 73-20 113 19 20 19 44 35 53 35 42 0 60-80 23-100-11-6-39-10-61-9-32 3-44-1-59-19-16-21-75-190-67-197 2-1 44-5 94-9l91-6 21 49c15 37 27 52 47 57 36 9 65-19 65-63 0-27-6-37-32-53-18-11-45-20-59-20-41 0-49-19-51-121l-3-94 70 2c39 1 82 2 97 2 38 1 58 26 58 71 0 21 5 42 10 45 6 4 8 10 5 14-2 5 14 5 37 1 44-8 78-39 78-70 0-28-37-68-76-80-48-16-54-39-37-144 7-49 11-91 9-94-3-3-13 1-21 8-26 21-65-2-65-40 0-37 38-67 67-52 13 7 30 2 63-18 42-25 45-29 42-66-2-21-5-41-7-43s-19-1-38 3c-23 4-38 14-45 31-24 52-102 36-102-22 0-47 62-81 90-48 10 12 16 12 48-5 43-23 50-34 44-66-4-20-10-24-43-24-21 0-41 6-46 14-13 22-46 34-70 25-30-11-31-61-3-89 24-24 38-25 59-6 15 13 21 12 56-7 30-17 40-29 40-47 0-14-4-25-10-25-31 2-114 18-138 27-42 16-84 71-92 120-4 24-29 156-57 293-58 292-72 440-43 461 10 8 17 15 14 17-2 2-44 0-94-3-120-8-759-5-772 3-27 17 62 217 162 368 66 99 171 219 191 219 6 0 45-46 86-102zm1973 57c82-21 126-58 148-125 21-62 17-91-6-38-9 20-34 50-58 67-35 26-51 31-97 31-36 0-71-7-99-21-36-17-48-31-73-85-35-71-57-89-106-81-33 6-64-11-64-33 0-5-26-10-57-12-70-4-77-24-23-60 19-13 48-42 65-66 32-44 29-44 114-26 24 5 36-1 71-32 24-21 57-60 74-85 34-51 110-119 132-119 8 0 14-5 14-11 0-19-89-2-150 29-46 23-54 31-52 51 4 29-40 78-79 86-32 7-92-23-109-55-33-62 29-151 94-134 23 5 23 5 18-74-3-52-1-82 7-86 6-4 11-13 11-19 0-8-3-8-8-2-4 6-38 25-77 43l-70 32 3 48c3 59-25 106-80 134-33 17-39 18-71 4-76-31-83-126-12-167l33-20-15-62c-8-34-17-74-20-89-3-16-11-28-17-28-7 0-37 19-69 42-54 39-57 44-57 84 0 35-5 47-31 68-39 33-78 33-114 0-25-23-27-30-23-75 3-27 13-58 23-68 9-11 14-24 11-30-13-21-139-102-147-94-4 4-19 33-32 64l-25 57 44 33c49 37 59 56 50 103-12 66-100 110-157 80-39-20-49-42-39-91 6-34 4-45-9-56-22-18-92-49-98-43-5 4 22 55 75 141 16 28 44 90 61 138 43 122 44 124 114 156 35 15 72 40 83 54l21 26 50-25c71-35 190-55 291-47 46 3 79 9 75 13-4 3-37 12-73 19-81 16-164 48-230 91l-52 33 44 21c42 21 43 22 46 76 2 30 7 59 11 63s26-2 47-15c33-20 52-23 124-22 143 3 240 49 342 164 50 56 56 60 98 60 25 0 73-7 105-15zm-861-31c3-8 2-12-4-9s-10 10-10 16c0 14 7 11 14-7zm-616-175c-3-20-5-19-9 9-3 20-2 29 4 23 5-5 7-19 5-32zm1639-31c-3-7-5-2-5 12s2 19 5 13c2-7 2-19 0-25zm-1662-18c-10-11-28-19-39-19-20 2-20 2 1 6 12 2 27 11 33 19 7 8 15 14 18 14s-3-9-13-20zm1089-75c-5-11-11-12-25-4-25 13-24 14 6 17 18 1 23-2 19-13zm544-61c7-2 10-8 7-14-3-5-2-10 3-10s12-13 14-29l4-30-25 19c-14 10-39 32-56 49l-29 31 34-6c19-3 41-8 48-10zm-78-9c7-9 11-17 9-18-27-19-62-38-65-35-7 8 21 68 32 68 6 0 17-7 24-15zm43-99c-9-22-19-44-22-48-4-5-24 9-45 31l-37 38 43 26c39 23 45 24 60 10 16-14 16-18 1-57zm-1650 37c-13-2-35-2-50 0-16 2-5 4 22 4 28 0 40-2 28-4zm1690-68c-21-12-39-21-41-20-2 2 5 21 14 44l17 42 23-22 24-23zm-340-46c9-12 17-29 17-38 0-10-8-4-19 16-31 49-72 54-116 13-14-13-25-20-25-16s12 18 27 32c23 21 35 25 63 20 19-3 43-15 53-27zm-2400-1c14-21 2-48-22-48s-37 36-20 56c14 17 28 14 42-8zm47-108c53-55 114-139 106-148-8-7-36 18-36 32 0 16-77 102-85 94-4-3 2-19 14-35 11-15 23-40 27-55 5-24 3-28-14-28-25 0-34 13-41 59-4 19-12 36-20 39-11 4-13-6-7-52 5-46 4-56-9-56-11 0-15 12-15 46 0 27-4 43-10 39-5-3-10-28-10-56 0-27-5-49-10-49-6 0-8 19-5 48 9 75 41 172 57 172 5 0 31-22 58-50zm3730-4c0-8-15-25-32-37-65-45-159-122-154-126 2-3 42 25 87 61 46 35 93 70 106 77 38 20 40 0 4-29-19-15-58-48-87-74-61-54-113-84-124-71-5 4-10 22-11 39-4 33 13 52 121 133 56 42 90 52 90 27zm-1455-6c19-8 19-9-2-9-12-1-25 4-28 9-7 12 2 12 30 0zm1245-12c0-6-18-33-39-59-22-25-43-58-47-73-7-28-53-82-89-103-17-10-18-12-3-12 25-1 89 58 105 96 13 32 36 43 47 24 3-5 8-34 10-65 4-52 16-92 16-53 0 10 24 33 53 52 28 20 84 62 122 95 65 55 95 71 95 52s-36-55-108-106c-100-72-140-106-125-106 6 0 24 11 40 23 108 90 153 114 153 82 0-14-95-94-175-148-60-40-176-77-258-82-95-6-131-12-193-30-32-10-37 9-17 71 16 51 22 58 63 77 25 11 72 48 105 81 75 76 216 194 233 195 6 1 12-4 12-11zm-1005-8c11-5 14-9 7-9-7-1-10-5-7-11 11-18-10-10-28 10-18 21-8 25 28 10zm-1155-14c0-2-8-10-17-17-16-13-17-12-4 4s21 21 21 13zm797-33c-3-10-5-4-5 12 0 17 2 24 5 18 2-7 2-21 0-30zm-634 10c-7-2-19-2-25 0-7 3-2 5 12 5s19-2 13-5zm-213-13c-8-5-19-10-25-10-5 0-3 5 5 10s20 10 25 10c6 0 3-5-5-10zm249-15c53-27 49-63-14-111-41-31-45-62-16-111l20-31-28 8c-100 28-123 62-75 107 18 16 24 30 20 43-3 11-9 29-12 39-4 13 2 28 20 45 29 30 46 32 85 11zm-1496-35c3-11 0-20-6-20-7 0-12 11-12 24 0 28 10 26 18-4zm3442 20c3-5-1-10-9-10-9 0-16 5-16 10 0 6 4 10 9 10 6 0 13-4 16-10zm-1735-17c0-5-12-13-26-20-26-12-26-12-9 7 18 20 35 26 35 13zm307-9c3-9-4-48-16-86-24-74-37-89-19-23 5 22 11 59 12 82 1 44 12 56 23 27zm-1962-44c-8-13-119-31-179-29-53 2-69 10-46 24 30 18 236 23 225 5zm1491-9c-4-5-25-24-49-42l-42-32 45 44c42 41 60 53 46 30zm1414-6c0-3-13-31-29-63-58-116-116-311-142-477-6-44-12-137-11-207 1-103-2-126-13-122-19 8-29 117-21 213 12 125 42 282 75 385 17 53 31 101 31 106 0 11 48 116 68 148 13 19 42 31 42 17zm130 0c0-3-11-27-24-53s-32-80-42-119c-10-40-21-73-24-73s-17 21-30 46l-25 45 42 37c41 35 42 39 34 74-5 20-6 39-3 42 7 7 72 8 72 1zm-1303-27c-3-8-6-5-6 6-1 11 2 17 5 13 3-3 4-12 1-19zm1353-26c0-2-7-2-14 1-11 4-13 1-9-10 5-12 2-15-9-11-9 4-21 1-27-5s-4 7 6 30c17 40 18 40 35 20 10-11 18-22 18-25zm-131-17c1-6-16-24-36-40-44-34-49-59-22-93 10-14 19-29 19-35s-20-30-45-54l-46-44 44-78-41-46-42-47 25-43c14-23 25-47 25-53 0-7-16-29-35-51-39-43-44-73-17-93 34-24 35-38 6-69-15-16-32-29-36-29-12 0-2 259 12 335 41 216 88 361 150 460 24 39 24 39 31 15 4-14 7-30 8-35zm-1647 25c-12-12-22-30-22-42v-21l-19 21c-10 12-22 18-26 14-5-4-5-2-2 5 4 6 16 9 27 6 14-4 20 0 20 10 0 8 6 18 13 20 26 11 30 6 9-13zm-113-36c-14-18-24-11-15 11 3 9 11 13 16 10 8-5 7-11-1-21zm52-14c21-12 25-35 8-45-13-8-99 3-99 13 0 6 54 38 68 41 2 1 12-4 23-9zm-121-25c10-12 10-18 0-30-19-23-40-18-40 8 0 38 18 48 40 22zm781-18c-10-9-11-8-5 6 3 10 9 15 12 12s0-11-7-18zm149 13c0-5-4-10-10-10-5 0-10 5-10 10 0 6 5 10 10 10 6 0 10-4 10-10zm-711-16c2-2 2-6-1-9-9-9-58 6-58 17 0 9 49 3 59-8zm-185-12c3-5-1-9-9-9s-12 4-9 9c3 4 7 8 9 8s6-4 9-8zm896-9c0-8-5-13-12-11-18 6-21 25-3 25 8 0 15-7 15-14zm-810-15v-18c0-6-13-4-30 5-39 20-39 34 0 26 17-3 31-9 30-13zm1860-88c0-21-4-28-14-24-24 9-56-27-50-55 4-22 3-23-5-6-5 11-19 28-30 37-17 15-21 15-21 3 0-8-6-15-13-15-8 0-13 9-11 23 1 12 3 28 3 35 1 8 9 10 24 7 12-3 40 1 62 9 54 20 55 20 55-14zm-1760-20 55-29-67-1h-68v30c0 37 10 37 80 0zm1595 3c-48-183-83-433-84-596-1-53-5-86-10-82-6 3-24 26-41 52l-32 46 31 24c39 30 39 53 2 95l-29 33 39 44c46 50 47 64 14 113l-24 36 39 45c22 25 40 50 40 57s-10 25-21 42l-22 30 44 44c50 51 64 55 54 17zm-1831 11c22-9 20-31-4-37-14-4-18-10-13-22 4-13 2-16-8-13-18 6-24 45-9 64 14 16 13 16 34 8zm376-29c16-19-3-45-32-45-18 0-19 2-7 17 11 13 11 17 2 20-7 3-13 9-13 14 0 15 36 10 50-6zm-354-33c-17-16-18-16-5 5 7 12 15 20 18 17 3-2-3-12-13-22zm1966 23c8-8-10-116-37-228-39-159-151-417-175-402-11 7-3 36 30 104 65 133 130 340 145 461 4 30 9 58 12 63 5 8 17 9 25 2zm-1842-21c0-8-4-12-10-9-5 3-10 1-10-4 0-6 4-11 9-11s13-9 16-20c8-25 80-64 106-57 12 3 23-2 29-14 6-10 17-19 25-19 20 0 19 10-2 26-17 12-17 13 0 20 25 9 51-18 42-45-8-26-32-27-65-1-17 14-41 20-77 20-50 0-53 2-53 25 0 14-4 25-10 25-5 0-10 7-10 15 0 9-19 25-42 36l-43 20 36-7c22-3 39-1 43 5 10 15 16 14 16-5zm170 6c0-5-2-10-4-10-3 0-8 5-11 10-3 6-1 10 4 10 6 0 11-4 11-10zm1527-32c-3-8-6-5-6 6-1 11 2 17 5 13 3-3 4-12 1-19zm58-40c-8-68-39-179-75-268-12-30-26-68-31-85l-9-30 20 25c11 14 20 29 20 34s3 7 6 3c6-6-26-70-39-75-4-2-5-7-2-12 3-4-2-21-11-36-15-29-15-29-9 21 3 28 7 75 9 105s13 82 25 115 31 101 42 150c25 114 25 115 45 115 14 0 15-8 9-62zm-1756-74c0-31 5-61 10-68 7-8 6-21-3-38-12-22-12-26-1-22 9 4 12 0 9-14-5-18-7-18-61 0-71 23-73 25-21 24 37-1 43 2 46 22 2 14 8 20 15 15 9-5 9-3 1 8-11 15-11 129 0 129 2 0 4-25 5-56zm-152 16c0-34-8-37-32-14-12 12-13 19-4 30 19 23 36 16 36-16zm92-10c24 0 31-4 31-20 0-24-3-24-43-3-18 9-38 16-44 15-7-2-13 4-13 13 0 12 4 14 19 5 11-5 33-10 50-10zm1723-52c-7-7-10-5-7 8 5 29 6 30 12 16 3-8 1-18-5-24zm-1880-42c66-42 179-83 282-102 92-18 281-20 346-5 69 16 90 14 90-8 0-11-4-22-9-26-33-20-357-30-480-15-185 22-372 82-355 113 18 31 56 77 64 77 5 0 33-15 62-34zm297-22c2-2 2-6-1-9-8-9-58 6-58 16 0 8 48 2 59-7zm91 1c17-20 8-50-14-50-13 0-20 8-21 25-4 41 12 53 35 25zm-49-52c13-15 11-16-20-10-18 4-42 7-52 7-11 0-19 5-19 10 0 17 76 12 91-7zm-419-37c29-13 91-34 136-46s82-27 82-32c0-12-106-142-149-182l-31-30-23 22c-39 37-80 46-120 27-51-24-71-69-64-141l6-59-51-52-51-51-38 80c-22 44-37 83-34 88 2 4 17 13 33 19 15 6 33 21 40 32 28 45 7 147-33 163-74 28-165-37-165-117 0-22-8-27-67-45-37-12-69-19-71-17-3 2 7 14 20 27 14 13 72 74 129 136 101 111 137 139 209 160 19 6 53 18 75 26 57 22 105 19 167-8zm821-55c4-17 2-18-19-9-18 8-21 14-12 20 20 12 25 10 31-11zm-543-3c-1-16-29-78-30-65 0 9-5 17-11 17-8 0-9 4 0 13 6 8 7 18 3 22-4 5-1 5 6 1 6-4 12-2 12 3 0 6 5 11 10 11 6 0 10-1 10-2zm558-59c20-20 80-71 132-115 127-106 165-145 222-233 52-79 58-97 31-86-10 4-31 12-48 18-41 14-142 75-152 89-4 7-6 28-5 48 5 70-56 128-122 116-88-17-97-118-14-172 28-18 29-22 24-68-3-27-10-54-14-58-6-6-42 8-90 33l-80 42 24 35c34 49 38 75 20 110-16 31-69 62-106 62-31 0-74-28-94-60-30-51-21-94 35-170 9-12 3-29-27-77-22-34-42-62-45-63-3 0-33 27-68 59-56 53-62 61-52 80 7 12 15 21 20 21 4 0 16 15 26 33 21 40 15 77-17 107-26 24-103 27-135 5-20-14-21-13-29 63-10 86-8 142 6 187l10 30 255-1h255zm-603-66c-1-38 2-93 6-123 10-74 18-133 19-142 1-23 27-3 41 31 14 33 23 41 53 46 26 5 43 3 61-9 36-24 32-60-10-107-19-22-35-48-35-58 0-22 144-161 166-161 8 0 18 8 22 18 4 9 24 48 46 85l39 68-32 33c-20 21-31 42-31 61 0 38 33 92 65 107 49 22 116-31 100-81-3-12-18-35-32-51-14-17-23-36-20-43 7-18 206-129 218-121 5 3 7 9 4 14s-2 11 3 14c13 8 36 112 29 130-3 8-24 27-47 41-49 31-56 46-40 84 14 34 53 55 79 42 32-18 44-41 47-97 2-31 5-58 8-61 17-17 144-95 163-100 18-4 34-26 61-82 29-62 56-96 148-189 79-80 107-115 97-119-13-5-124 2-163 10-22 4-128 36-180 54-75 26-187 91-244 144-30 27-59 49-65 49-7 0-11-28-11-80 0-72-19-280-26-288-7-9-141 97-218 173-63 61-94 100-116 147-17 35-30 71-30 81 0 9-4 17-10 17-5 0-10-9-10-19 0-37-58-161-115-245-32-47-61-86-65-86-9 0-87 210-100 270-5 25-10 78-10 118 0 85-15 95-47 30-26-53-166-217-236-276-55-48-153-122-160-122-12 0-27 97-27 167 0 77 22 165 51 199 18 22 1 16-44-15-77-54-249-80-408-61-155 18-166 24-91 55 67 29 147 88 240 180 73 73 102 95 137 105 52 15 57 20 61 69 4 40 50 91 83 91 23 0 71-37 71-55 0-31-26-68-62-86-21-11-38-26-38-34 0-24 92-220 103-220 3 0 39 30 80 68 73 65 75 68 66 99-14 52-11 93 12 122 30 39 73 35 115-9 18-19 37-35 42-35 9 0 121 130 161 188 12 17 23 32 25 32 1 0 2-30 1-67zm1599-63c14-24 16-31 5-25-28 16-49 38-49 52 0 23 23 9 44-27zm107-49c-8-5-16-17-17-26-3-21-14-33-14-16 0 7-4 10-9 7-4-3-17 4-27 16-19 21-19 21 2 10 17-9 25-8 34 3 7 8 20 15 29 15 13 0 14-2 2-9zm-1881-13c0-4-7-8-15-8s-15 4-15 8c0 5 7 9 15 9s15-4 15-9zm-664-50c4-7 3-8-4-4s-12 3-12-2-7-9-16-9c-14 0-14 2 2 14 22 16 21 16 30 1zm34-7c0-6-4-13-10-16-5-3-10 1-10 9 0 9 5 16 10 16 6 0 10-4 10-9zm2495-1c20-7 26-16 23-33-2-17-10-22-33-22-31 0-43 20-31 51 6 17 7 17 41 4zm-1648-52c-3-7-5-2-5 12s2 19 5 13c2-7 2-19 0-25zm1696-72c14-25 33-66 43-93 10-26 22-51 26-54 5-3 13-20 18-38 8-30 8-32-13-25-12 4-23 10-25 14s-11 6-22 3c-15-4-22 5-36 51-10 31-23 55-28 52-6-2-10-9-8-17 12-50 13-69 4-69-5 0-13 16-16 35-9 46-24 45-28-2-2-28-8-39-22-41-18-4-18 1-12 64 10 99 32 162 59 166 30 5 32 4 60-46zm-747-94c-4-3-14 2-24 12-16 18-16 18 6 6 13-6 21-14 18-18zm34 18c0-5-5-10-11-10-5 0-7 5-4 10 3 6 8 10 11 10 2 0 4-4 4-10zm-2250-105c13-41 7-55-24-55-46 0-61 45-26 80 25 25 35 20 50-25zm48-1c10-8 8-14-6-28-19-16-19-16-16 9 1 16-3 28-12 32-8 3-11 10-7 16s10 5 17-4c7-8 17-19 24-25zm2980-41c39-16 41-30 6-39-50-13-174 21-174 48 0 13 130 7 168-9zm-502-255c7-5 14-3 18 7 8 21 39 19 61-5 34-37-5-96-53-79-25 10-29 34-7 43 16 6 21 26 6 26-5 0-16-6-24-14-12-12-16-12-27 4-8 11-17 17-22 14-4-3-5 2-2 10 6 15 27 12 50-6zm-1886-36c0-10-4-10-16 2-8 9-12 21-8 27 7 13 24-7 24-29zm-30-18c0-12 6-15 25-10 31 8 34-13 6-38-16-15-22-15-40-4-28 17-28 68 1 68 4 0 8-7 8-16zm575 6c-3-6 4-10 16-10 36 0 12-13-26-15-32-1-33 0-18 17 17 19 39 25 28 8zm18-60c4 0 7 7 7 16s6 14 13 12c6-3 12-18 12-34 0-22-6-31-27-38-32-11-58 6-58 39 0 30 11 38 30 20 9-8 20-15 23-15zm587-9c0-5-9-11-21-14-16-4-18-3-8 9 13 16 29 19 29 5zm34-44c8-13 6-22-12-39-27-28-55-16-60 26-3 24-1 27 17 21 13-4 21-2 21 5 0 16 21 8 34-13z"/>
  <path d="m2153 8805c0-8 4-15 8-15s9 7 13 15c3 9 0 15-8 15-7 0-13-7-13-15z"/>
  <path d="m2668 8623c6-2 18-2 25 0 6 3 1 5-13 5s-19-2-12-5z"/>
  <path d="m2970 8620c-9-6-10-10-3-10 6 0 15 5 18 10 8 12 4 12-15 0z"/>
  <path d="m2301 8540c0-8 4-22 9-30 12-18 12-2 0 25-6 13-9 15-9 5z"/>
  <path d="m1785 8040c-3-6 1-7 9-4 18 7 21 14 7 14-6 0-13-4-16-10z"/>
  <path d="m1830 8026c0-2 7-7 16-10 8-3 12-2 9 4-6 10-25 14-25 6z"/>
  <path d="m2135 8009c-4-6-5-12-2-15 2-3 7 2 10 11 7 17 1 20-8 4z"/>
  <path d="m1445 7979c-4-6-5-12-2-15 2-3 7 2 10 11 7 17 1 20-8 4z"/>
  <path d="m1460 7956c0-2 8-10 18-17 15-13 16-12 3 4s-21 21-21 13z"/>
  <path d="m1281 7936c-9-11-9-16 1-22 7-4 10-4 6 1-4 4-3 14 3 22 6 7 9 13 6 13-2 0-10-6-16-14z"/>
  <path d="m1306 7933c-6-14-5-15 5-6 7 7 10 15 7 18s-9-2-12-12z"/>
  <path d="m2045 7890c10-11 20-20 23-20s-3 9-13 20-20 20-23 20 3-9 13-20z"/>
  <path d="m2171 7834c0-11 3-14 6-6 3 7 2 16-1 19-3 4-6-2-5-13z"/>
  <path d="m2111 7804c0-11 3-14 6-6 3 7 2 16-1 19-3 4-6-2-5-13z"/>
  <path d="m1950 7723c0-5 12-20 28-34l27-24-25 30c-14 17-26 32-27 34-2 2-3 0-3-6z"/>
  <path d="m2090 7716c0-2 8-10 18-17 15-13 16-12 3 4s-21 21-21 13z"/>
  <path d="m1564 7548-19-23 23 19c21 18 27 26 19 26-2 0-12-10-23-22z"/>
  <path d="m1675 7540c-16-7-17-9-3-9 9-1 20 4 23 9 7 11 7 11-20 0z"/>
  <path d="m1740 7526c0-2 8-10 18-17 15-13 16-12 3 4s-21 21-21 13z"/>
  <path d="m1729 7283c-13-16-12-17 4-4 9 7 17 15 17 17 0 8-8 3-21-13z"/>
  <path d="m2984 8544c-18-14-18-15 4-4 12 6 22 13 22 15 0 8-5 6-26-11z"/>
  <path d="m3051 8503c-10-26-10-27 4-9 8 11 15 23 15 28 0 15-7 8-19-19z"/>
  <path d="m2665 8440c-3-6 1-7 9-4 18 7 21 14 7 14-6 0-13-4-16-10z"/>
  <path d="m2995 8100c3-5 8-10 11-10 2 0 4 5 4 10 0 6-5 10-11 10-5 0-7-4-4-10z"/>
  <path d="m2412 8453c-36-7-15-22 22-16 54 8 76-10 76-63 0-40-5-49-42-85-24-23-53-45-65-50-18-7-20-13-14-36 4-16 15-29 27-31 10-2 31-18 45-35 22-26 29-29 42-19 18 15 28 50 17 57-4 3-10-4-13-15-7-28-32-25-46 6-7 17-17 24-27 20-8-3-17 1-21 9-3 10 17 36 62 77 67 62 67 62 62 107-8 69-43 90-125 74z"/>
  <path d="m2355 8390c-4-6 5-10 19-10 17 0 26-5 26-16s-6-15-20-11c-30 8-24-6 10-26 17-10 30-22 30-28 0-5 5-9 10-9 6 0 10 7 10 15s9 15 20 15c22 0 27 28 10 61-8 15-21 19-60 19-27 0-52-4-55-10zm105-55c0-9-39-5-45 5-4 6-4 18-1 27 6 14 9 13 26-5 11-12 20-24 20-27z"/>
  <path d="m2600 8286c0-14 7-16 44-11 54 8 66-7 66-87 1-43 3-49 11-34 15 24 5 104-14 123-8 8-36 18-61 20-38 5-46 3-46-11z"/>
  <path d="m2287 8272c-35-38-12-80 61-115 35-17 37-15 22 14-6 10-21 19-33 19-46 0-63 45-27 68 12 7 18 17 15 22-9 15-20 12-38-8z"/>
  <path d="m2550 8247c0-10 7-20 15-23 20-8 19-24-1-24-13 0-11-6 9-26 15-14 32-41 39-60 13-35 23-40 48-24 12 8 11 10-6 10-20 0-34 17-34 41 0 5 7 9 15 9s15-7 15-15 5-15 10-15c6 0 10 20 10 43 0 54-25 82-67 74-18-3-31 0-40 11-11 16-12 16-13-1zm70-42c0-8 7-15 15-15 20 0 19-19-1-27s-49 21-41 41 27 21 27 1z"/>
  <path d="m2290 8145c0-12 43-90 54-97 6-4 29-8 52-8 22 0 46-6 53-12 10-11 12-9 9 7s-10 19-37 17c-36-4-72 22-97 71-13 23-34 37-34 22z"/>
  <path d="m2373 8116c2-6 21-14 41-17 42-7 51-17 66-71 11-40 38-62 64-52 21 8 30 42 16 59-16 19-32 8-25-16 5-14 2-19-13-19-14 0-21 9-26 33-8 42-51 83-94 89-20 3-31 1-29-6z"/>
  <path d="m2301 8015 35-35c1 0 4 7 8 15 4 10-5 22-27 35-48 30-54 24-16-15z"/>
  <path d="m750 8230c0-5 5-10 10-10 6 0 10 5 10 10 0 6-4 10-10 10-5 0-10-4-10-10z"/>
  <path d="m637 8135c-18-25-18-25 8-25 20 0 25 5 25 25 0 31-10 31-33 0z"/>
  <path d="m523 7985c-13-19-23-37-23-40s10 0 23 6c12 7 24 10 27 8s6 11 8 29c4 41-7 41-35-3z"/>
  <path d="m730 8150c0-23 4-24 31-10 27 15 24 30-6 30-18 0-25-5-25-20z"/>
  <path d="m648 8043c-23-4-28-9-28-34 0-16 2-29 4-29s16 16 30 35c15 19 26 34 24 34-2-1-15-4-30-6z"/>
  <path d="m541 7889c-20-8-21-12-10-25 12-14 14-14 26 2 7 10 13 21 13 26 0 9 2 9-29-3z"/>
  <path d="m431 7818c-14-38-11-42 23-27 28 13 33 28 14 47-18 18-25 15-37-20z"/>
  <path d="m465 7726c-17-12-14-36 4-36 8 0 23 41 17 47-1 2-11-3-21-11z"/>
  <path d="m378 7694c-3-5-8-22-12-37-6-26-5-28 16-22 31 10 31 10 15 41-8 15-16 23-19 18z"/>
  <path d="m417 7583c-12-11-8-23 8-23 8 0 15 7 15 15 0 16-12 20-23 8z"/>
  <path d="m940 8010c6-11 13-20 16-20 2 0 0 9-6 20s-13 20-16 20c-2 0 0-9 6-20z"/>
  <path d="m779 7983c-13-16-12-17 4-4s21 21 13 21c-2 0-10-8-17-17z"/>
  <path d="m1353 7873c4-3 1-13-6-22-11-14-10-14 5-2 16 12 16 31 1 31-4 0-3-3 0-7z"/>
  <path d="m680 7848c-10-21-10-21 3-6 8 10 18 14 22 10 5-4 5-1 1 6-10 17-14 15-26-10z"/>
  <path d="m1261 7804c0-11 3-14 6-6 3 7 2 16-1 19-3 4-6-2-5-13z"/>
  <path d="m1482 7671c-11-7-11-9 0-14 9-3 15 1 15 9s-1 14-1 14c-1 0-7-4-14-9z"/>
  <path d="m1429 7583c-13-16-12-17 4-4 9 7 17 15 17 17 0 8-8 3-21-13z"/>
  <path d="m1612 7230c0-14 2-19 5-12 2 6 2 18 0 25-3 6-5 1-5-13z"/>
  <path d="m1637 6816c-17-13-17-14 0-20 10-4 14-4 10 0s-2 13 4 21c14 17 9 16-14-1z"/>
  <path d="m1687 6799c7-7 15-10 18-7s-2 9-12 12c-14 6-15 5-6-5z"/>
  <path d="m1550 6686c0-2 8-10 18-17 15-13 16-12 3 4s-21 21-21 13z"/>
  <path d="m1674 6662c3-6 0-12-6-15-7-2-1-4 14-3 34 1 34 2 7 17-13 6-19 7-15 1z"/>
  <path d="m2985 8030c27-12 43-12 25 0-8 5-22 9-30 9-10 0-8-3 5-9z"/>
  <path d="m2635 7910c-3-6 1-7 9-4 18 7 21 14 7 14-6 0-13-4-16-10z"/>
  <path d="m2677 7909c7-7 15-10 18-7s-2 9-12 12c-14 6-15 5-6-5z"/>
  <path d="m2576 7537c3-10 9-15 12-12s0 11-7 18c-10 9-11 8-5-6z"/>
  <path d="m1885 7469c-4-6-5-12-2-15 2-3 7 2 10 11 7 17 1 20-8 4z"/>
  <path d="m2835 7451c-3-5-2-12 3-15s9 1 9 9c0 17-3 19-12 6z"/>
  <path d="m2866 7422c-3-5 1-9 9-9s12 4 9 9c-3 4-7 8-9 8s-6-4-9-8z"/>
  <path d="m1925 7370c-3-5-1-10 4-10 6 0 11 5 11 10 0 6-2 10-4 10-3 0-8-4-11-10z"/>
  <path d="m1990 7336c0-2 8-10 18-17 15-13 16-12 3 4s-21 21-21 13z"/>
  <path d="m1776 7231c-3-5 0-11 7-14 8-3 14 1 14 9 0 16-13 19-21 5z"/>
  <path d="m1955 7111c-3-5-2-12 3-15s9 1 9 9c0 17-3 19-12 6z"/>
  <path d="m2080 7111c0-6 4-13 10-16s7 1 4 9c-7 18-14 21-14 7z"/>
  <path d="m1916 7211c-4-5-2-12 3-15 5-4 12-2 15 3 4 5 2 12-3 15-5 4-12 2-15-3z"/>
  <path d="m1880 7175c-7-9-11-17-9-20 3-2 10 5 17 15 14 24 10 26-8 5z"/>
  <path d="m1880 7096c0-8 4-17 9-20 5-4 7 3 4 14-6 23-13 26-13 6z"/>
  <path d="m3490 7165c0-8 2-15 4-15s6 7 10 15c3 8 1 15-4 15-6 0-10-7-10-15z"/>
  <path d="m3434 7045c-4-8-3-23 1-32 7-17 8-16 15 2 5 11 9 26 9 33 1 17-18 15-25-3z"/>
  <path d="m3360 6964c-6-16-13-35-15-41-7-22 9-13 32 16 20 25 21 30 8 41-12 10-16 7-25-16z"/>
  <path d="m3316 6808c-3-7-7-26-11-43l-7-30 26 24c20 19 23 28 15 42-11 22-18 24-23 7z"/>
  <path d="m3278 6598c-6-54-3-57 24-30 19 18 20 25 10 47-17 37-29 31-34-17z"/>
  <path d="m3270 6415c0-8 5-15 10-15 6 0 10 7 10 15s-4 15-10 15c-5 0-10-7-10-15z"/>
  <path d="m1716 7082c-3-5 1-9 9-9s12 4 9 9c-3 4-7 8-9 8s-6-4-9-8z"/>
  <path d="m3390 6865c-13-16-6-50 9-41 11 7 21 56 11 56-4 0-13-7-20-15z"/>
  <path d="m3357 6696c-13-20-14-27-3-41 12-16 14-14 19 20 8 48 4 53-16 21z"/>
  <path d="m3327 6502c-11-12-13-22-6-35 15-27 26-20 27 18 2 40 1 41-21 17z"/>
  <path d="m3322 6337c-9-11-10-17-2-22 15-9 23-1 18 21-3 15-4 16-16 1z"/>
  <path d="m1456 6615c-15-23-15-25 5-35 74-40 250-79 384-85l100-5-121 24c-66 13-131 29-143 36-13 6-25 9-28 6-3-2-10-1-17 5-16 13-145 79-155 79-5 0-16-11-25-25zm56-27c-13-13-32-2-32 18 0 12 4 13 21 3 14-7 18-14 11-21zm45-4c-3-3-12-4-19-1-8 3-5 6 6 6 11 1 17-2 13-5z"/>
  <path d="m1358 6533c7-3 16-2 19 1 4 3-2 6-13 5-11 0-14-3-6-6z"/>
  <path d="m1537 6313c3-7 6-13 8-13s5 6 8 13c3 8-1 14-8 14s-11-6-8-14z"/>
  <path d="m1236 6277c3-10 9-15 12-12s0 11-7 18c-10 9-11 8-5-6z"/>
  <path d="m930 6235c-7-9-8-15-2-15 5 0 12 7 16 15 3 8 4 15 2 15s-9-7-16-15z"/>
  <path d="m1212 6190c-18-29-15-38 4-12 9 13 14 25 12 27s-9-5-16-15z"/>
  <path d="m2188 6423c7-3 16-2 19 1 4 3-2 6-13 5-11 0-14-3-6-6z"/>
  <path d="m1751 6254c0-11 3-14 6-6 3 7 2 16-1 19-3 4-6-2-5-13z"/>
  <path d="m2420 6266c0-2 7-9 15-16 13-11 14-10 9 4s-24 23-24 12z"/>
  <path d="m2036 6225c-11-8-15-15-9-15s16 7 23 15c16 19 11 19-14 0z"/>
  <path d="m2210 6216c0-2 8-10 18-17 15-13 16-12 3 4s-21 21-21 13z"/>
  <path d="m2587 6063c-3-5 6-9 20-10 19-1 22 1 12 8-17 11-26 11-32 2z"/>
  <path d="m2341 6034c0-11 3-14 6-6 3 7 2 16-1 19-3 4-6-2-5-13z"/>
  <path d="m2220 6036c0-2 8-10 18-17 15-13 16-12 3 4s-21 21-21 13z"/>
  <path d="m1924 6019c-3-6 2-18 12-27 17-16 17-16 5 0-7 9-10 22-6 28 3 5 4 10 1 10s-8-5-12-11z"/>
  <path d="m2020 6006c0-2 8-10 18-17 15-13 16-12 3 4s-21 21-21 13z"/>
  <path d="m1880 5986c0-2 7-9 15-16 13-11 14-10 9 4s-24 23-24 12z"/>
  <path d="m2020 5959c0-5 5-7 10-4 6 3 10 8 10 11 0 2-4 4-10 4-5 0-10-5-10-11z"/>
  <path d="m1658 6331c-1-6-32-46-68-90-52-64-69-78-86-74-12 2-25-1-29-7-5-8-3-11 6-8 8 3 22 1 32-4 11-5 17-5 17 2 0 5 6 10 13 10 6 0 23 16 36 35s27 35 32 35 9 7 9 16c0 8 5 12 10 9 6-3 10-2 10 3 0 6 7 13 16 16 12 5 14 1 8-17-10-30-6-78 9-96 7-9 8-12 1-8-16 10-15-44 2-60 7-8 15-9 19-4 3 5 1 12-4 15s-7 22-4 41c3 20 1 41-4 48-4 7-8 42-8 79 0 61-7 86-17 59z"/>
  <path d="m1086 6299c-18-14-26-30-26-53 0-18-6-40-13-50-12-16-66-41-104-50-7-1-30-25-52-52-28-36-37-54-30-65 5-7 9-9 9-3 0 17 70 94 85 94 7 0 15 7 19 15 3 8 11 15 18 15 9 0 9-3-2-11-12-9-11-10 5-4 31 11 49 11 51 0 2-19 18-50 42-82 34-45 33-114-1-105-12 3-18 1-14-5 7-11-33-33-59-33-9 0-12-5-8-12 6-10 4-10-7-2-14 12-25 11-89-2-80-17-135-20-177-9-37 8-44 25-12 25 11 0 17 5 14 10-3 6 2 14 13 18 44 17 124 102 96 102-3 0-34-25-69-55-34-30-65-55-69-55-11 0-87-53-82-57 15-15 265-21 288-7 7 5 21 7 31 6 11-2 17 3 17 15 0 14 2 15 9 4 6-9 19-12 40-8 34 7 111 53 111 66 0 5 9 7 20 4 19-5 19-3-6 53-14 31-33 71-42 88-27 52-27 86 2 113 14 13 28 23 31 22 12-2 24 7 27 21 2 8 7 18 12 21 9 7-28 49-43 49-4 0-20-9-35-21zm54-25c0-2-10-12-22-23-32-31-54-9-23 23 13 13 45 13 45 0z"/>
  <path d="m1369 6219c-19-19-26-78-11-93 22-22 6-61-45-109-29-27-50-54-46-60s11-4 18 6 16 17 21 17 28 21 52 46c36 39 41 49 30 62-10 12-10 14 0 8 6-4 12-2 12 3 0 6-4 11-9 11-4 0-11 16-14 36-5 30-2 40 16 54 22 18 22 18 41-11 13-21 22-27 29-20 15 15-17 58-49 64-18 3-32-1-45-14z"/>
  <path d="m2352 6188c-19-19-14-56 8-68 11-6 20-8 20-5s11-6 24-21l23-28-3 53c-1 28-8 58-14 66-15 18-42 19-58 3zm46-41c2-12-1-15-12-11-22 8-30 36-9 32 10-2 19-11 21-21z"/>
  <path d="m2081 6141c-27-37-27-73 0-97 36-32 41-51 27-92-7-20-20-42-28-49s-10-13-5-13c7 0 7-3 0-8-22-16-65-82-54-82 7 0 10-2 7-5-9-9-59 14-99 46-22 17-39 26-39 20 0-30 65-133 118-186 101-102 198-182 208-172 7 7 12 77 7 98-10 35-24 19-20-21 2-22 2-40-1-40-2 0-18 11-36 25-17 14-35 29-41 33-5 5-13 9-17 10-5 1-8 4-8 7 1 9-28 35-38 35-6 0-12 7-16 15-3 8-11 14-18 13-7-2-12 2-13 9 0 6-14 27-31 47-18 20-28 40-24 46 6 9 10 8 17-4 8-14 12-14 41 4 17 11 32 27 32 35 0 10 5 13 12 9 8-5 9-2 4 11-6 16-4 16 11 4 11-9 14-10 9-1-9 16 2 54 15 47 5-3 6 1 3 9-3 9-1 16 5 16s11 9 11 19c0 30 17 34 48 13 15-10 42-24 60-32 22-8 32-18 29-29-2-9-8-15-15-14-7 2-9-4-5-14 5-12 3-14-7-8-9 5-11 4-6-3 4-7 3-12-3-12-7 0-7-8-1-26 8-19 7-31-2-42-10-12-10-14 0-8 7 4 12 1 12-8 0-10-6-13-17-10-12 4-14 3-6-3 16-12 29-73 15-73-5 0-12-7-16-15-4-12-2-13 15-2 18 11 20 22 18 100-1 74 1 90 17 106 18 18 21 16 80-39 64-59 226-156 244-145 6 3 10 3 10-2 0-10 78-35 90-28 4 3 10 1 12-5 3-10 71-25 155-35 47-5 48-5 24 12-31 22-100 96-147 156-20 26-43 47-51 47-9 0-12 7-7 25 4 18 1 27-10 31-9 3-15 11-14 18 3 17-12 56-23 56-18 0-24 3-50 21-14 10-29 16-33 12-3-3-6-1-6 6s-4 10-9 7-12 1-15 10c-4 9-9 14-12 11s-19 9-35 26l-28 32-2-35c-1-19-2-41-2-47 1-7-4-13-9-13s-6-9-3-20c4-11 2-20-4-20s-11-6-11-13-8-22-17-34l-17-20-40 22c-180 98-216 126-195 151 7 8 7 19 1 30-8 15-10 15-15 0-8-19-23-21-24-3 0 6-4 19-7 28-7 16 27 59 46 59 14 0 27-44 16-57-5-7-8-18-6-24 4-11 48 49 48 64 0 16-35 37-60 37-20 0-35-9-49-29zm401-154c7-6 30-21 51-32 20-11 37-23 37-27 0-5 9-8 19-8 20 0 51-49 51-81 0-10 5-21 10-24 6-4 8-11 4-16-3-5-2-8 3-7 15 5 51-36 48-55-2-9 1-15 6-11 5 3 9 1 9-5 0-5 9-13 20-16 11-4 18-11 15-16-4-5 1-9 10-9 12 0 35-35 35-53 0-8-49 1-69 12-13 7-36 11-52 9-15-3-26-1-23 3 6 10-34 32-46 24-5-3-11-1-15 5s-11 8-16 5c-5-4-9-2-9 2 0 8-72 43-89 43-5 0-11 5-13 10-2 6-16 12-31 14-15 1-33 9-40 16-10 10-9 11 3 5 9-5 8 0-4 14-11 12-25 20-32 17-14-5-37 41-24 49 4 3 10 0 12-6 3-8 9-6 20 4 8 9 19 13 22 9 4-3 9 4 13 16 3 12 9 19 14 16 8-5 13 18 12 54-1 6 3 12 8 12s9 9 9 20c0 23 12 26 32 7z"/>
  <path d="m1809 6129c-17-6-32-24-42-50-9-23-20-38-25-35s-9-1-9-9c0-11 4-12 13-4 7 6 18 8 23 4 6-3 8 0 5 8s2 17 10 20c9 4 16 13 16 21 0 17 34 31 51 21 7-5 5-12-5-24-48-50-68-82-60-99 4-9 8-21 9-27 0-5 6-20 13-32 10-18 10-28 1-45-7-13-12-24-11-25 1-2 2-4 1-5 0-2-3-14-5-27-2-14-14-34-25-44s-18-25-15-33-8-34-24-58c-17-24-30-49-30-55s-7-8-15-5c-8 4-15 11-15 16 0 6-6 24-14 41-28 64-52 153-51 189 1 20-1 36-4 34-3-3-4 24-3 57 2 34 1 59-4 55-4-4-12-4-18 1-25 19-56 19-67 0-5-11-14-17-20-14-5 4-9-1-9-10 0-23-48-102-66-109-9-4-14-13-10-21 3-8 2-14-2-13-12 2-42-14-42-23 0-4-16-25-35-46-32-35-45-64-27-62 12 1 174 194 193 231 25 48 45 63 70 52 18-8 20-20 23-94 3-80 18-170 34-194 4-6 7-13 7-16 1-8 37-114 42-123 4-7 29 21 70 80 32 45 85 163 88 194 2 32 14 51 26 44 17-11 9 12-10 29-11 10-24 30-29 45-9 24-5 33 29 72 43 49 48 73 20 89-11 5-21 10-23 9-2 0-15-5-29-10z"/>
  <path d="m1690 6050c6-11 15-20 21-20s6 7-1 20c-6 11-15 20-21 20s-6-7 1-20z"/>
  <path d="m1224 5939c-19-18-25-19-45-9-13 7-21 9-17 5s3-16-2-25c-7-13-5-21 5-30 12-10 15-10 15 3 0 8 14 20 30 26 17 5 30 15 30 20 0 6 7 8 16 4 11-4 15-2 12 7-7 22-22 22-44-1z"/>
  <path d="m1131 5848c-19-61-19-258 0-258 11 0 75 48 126 95 25 23 30 34 23 45s-10 12-10 2c0-17-25-43-33-35-7 6-73-57-70-68 1-4-6-5-16-2-15 4-17 15-16 81 1 42 7 87 13 99 14 26 16 73 3 73-5 0-14-15-20-32z"/>
  <path d="m2200 5801c0-6 4-13 10-16s7 1 4 9c-7 18-14 21-14 7z"/>
  <path d="m2205 5680c3-5 8-10 11-10 2 0 4 5 4 10 0 6-5 10-11 10-5 0-7-4-4-10z"/>
  <path d="m2220 5630c0-5 5-10 10-10 6 0 10 5 10 10 0 6-4 10-10 10-5 0-10-4-10-10z"/>
  <path d="m3421 5995c0-11 8-49 17-83 16-55 20-62 31-48 12 15 15 15 28-1 12-16 13-15 1 6-7 13-27 51-45 85-19 36-32 53-32 41zm54-104c3-5 1-12-5-16-5-3-10 1-10 9 0 18 6 21 15 7z"/>
  <path d="m423 5854c-3-8-2-19 3-24s10 1 10 16c2 27-4 31-13 8z"/>
  <path d="m3050 5529c0-5 5-7 10-4 6 3 10 8 10 11 0 2-4 4-10 4-5 0-10-5-10-11z"/>
  <path d="m1679 5433c-13-16-12-17 4-4s21 21 13 21c-2 0-10-8-17-17z"/>
  <path d="m2248 5373c7-3 16-2 19 1 4 3-2 6-13 5-11 0-14-3-6-6z"/>
  <path d="m2643 8875c0-8 4-12 9-9s6 10 3 15c-9 13-12 11-12-6z"/>
  <path d="m1836 8872c-3-5 1-9 9-9s12 4 9 9c-3 4-7 8-9 8s-6-4-9-8z"/>
  <path d="m467 8639c-47-11-77-26-77-40 0-5 12-3 28 5 15 8 44 17 65 21 20 4 40 11 43 16 6 11-8 10-59-2z"/>
  <path d="m3900 8346c-63-26-75-34-72-51 2-11 35-100 73-197s69-182 69-187c0-6 2-11 5-11 17 0 165 63 161 68-2 4-33 84-69 177-36 94-71 184-79 201l-13 30zm131-190c48-124 66-182 58-186-19-12-89-34-93-29-4 4-134 334-139 352-2 9 82 46 96 43 5-1 40-82 78-180z"/>
  <path d="m2411 7327c2-1 13-9 24-17 19-14 19-14 6 3-7 9-18 17-24 17s-8-1-6-3z"/>
  <path d="m2170 7226c0-2 8-10 18-17 15-13 16-12 3 4s-21 21-21 13z"/>
  <path d="m3158 7143c7-3 16-2 19 1 4 3-2 6-13 5-11 0-14-3-6-6z"/>
  <path d="m3264 7076c-3-9-10-13-15-10s-6-2-3-11c6-14 9-13 21 5 8 12 12 24 9 27s-8-2-12-11z"/>
  <path d="m2591 7034c0-11 3-14 6-6 3 7 2 16-1 19-3 4-6-2-5-13z"/>
  <path d="m2433 7014c4-4 1-14-6-23-11-14-10-15 8-1 11 8 21 15 23 16s-5 5-15 8c-9 4-14 4-10 0z"/>
  <path d="m2610 7006c0-2 8-10 18-17 15-13 16-12 3 4s-21 21-21 13z"/>
  <path d="m2017 6951c-10-14-10-14 4-4 9 7 18 10 21 7s8-1 12 4c9 16-24 9-37-7z"/>
  <path d="m2352 6914c-7-8-8-14-3-14 10 0 25 19 20 25-2 1-10-3-17-11z"/>
  <path d="m1818 6833c6-2 18-2 25 0 6 3 1 5-13 5s-19-2-12-5z"/>
  <path d="m1866 6808c3-5 10-6 15-3 13 9 11 12-6 12-8 0-12-4-9-9z"/>
  <path d="m2935 6630c3-5 11-10 16-10 6 0 7 5 4 10-3 6-11 10-16 10-6 0-7-4-4-10z"/>
  <path d="m3140 6566c0-8 4-17 9-21 6-3 9 4 8 15-1 23-17 28-17 6z"/>
 </g>
 <g>
  <path d="m135.59 40.54c0.48172-1.2136 3.3924-8.9352 6.4683-17.159 7.7066-20.605 7.0747-19.723 14.125-19.723h5.9791l8.1619 17.762c4.4891 9.7692 8.3637 18.318 8.6102 18.998 0.25833 0.712-1.612 1.0665-4.4132 0.83642-3.6104-0.29653-5.1819-1.1294-6.1062-3.2364-1.1121-2.5349-2.1421-2.8371-9.669-2.8371-10.161 0-12.263 0.70165-13.74 4.5852-0.90414 2.3781-2.0585 2.9803-5.7125 2.9803-3.8543 0-4.4407-0.34936-3.7035-2.2066zm27.777-11.684c0.90594-1.4658-6.9428-23.101-7.9978-22.046-0.83939 0.8394-6.3977 19.536-6.4666 21.752-0.0604 1.9455 13.276 2.2171 14.464 0.29453z" fill="#297eb6"/>
  <g stroke-width="1.2609">
   <path d="m371.51 192.93c-3.5222-8.9432-6.4039-16.796-6.4039-17.451s1.5373-1.8905 3.4163-2.7466c4.4088-2.0088 5.1638-0.9929 11.575 15.574 7.2542 18.745 7.1549 18.154 3.2946 19.622-1.8255 0.69404-3.8048 1.2619-4.3986 1.2619-0.59375 0-3.9613-7.3172-7.4834-16.26z" fill="#297eb6"/>
   <path d="m45.651 80.963c-1.0967-3.8127-4.9162-34.542-4.3623-35.096 0.28462-0.28462 3.6092-0.87904 7.388-1.3209l6.8705-0.80346 5.8849 12.742c3.2367 7.008 6.4362 12.742 7.11 12.742 1.3069 0 1.8224-2.3239 4.0905-18.439l1.4416-10.243 6.9915-0.82172c3.8453-0.45194 7.2389-0.57435 7.5412-0.27202 0.42901 0.429 5.2126 32.761 5.3638 36.253 0.01912 0.44142-1.569 1.038-3.529 1.3256l-3.5638 0.52305-2.0815-15.062c-1.1448-8.284-2.3537-15.334-2.6865-15.667-0.33272-0.33272-1.3903-0.30358-2.3502 0.064725-1.1716 0.44957-2.4959 5.8512-4.029 16.433-2.2612 15.607-2.3185 15.768-5.7863 16.277-3.3714 0.49482-3.7511-0.04417-10.148-14.406-3.6552-8.2063-7.2414-14.719-7.9692-14.472-1.3695 0.46412-1.5626 7.6869-0.61275 22.92 0.51686 8.2896 0.38437 8.8501-2.1784 9.2152-1.7698 0.25212-2.9593-0.41255-3.3846-1.8914z" fill="#dd5050"/>
   <path d="m299.86 55.321c-4.6355-1.8639-13.994-12.078-15.191-16.579-1.8616-7.0029 2.2076-16.226 9.6373-21.844 7.5415-5.7025 20.598-1.716 28.044 8.5625 3.3971 4.6895 5.1885 13.568 2.7165 13.464-2.371-0.10054-5.4313-3.7648-6.9073-8.2707-2.2654-6.9155-8.9009-10.543-14.809-8.0954-5.4242 2.2468-11.383 10.545-11.383 15.853 0 5.9089 6.1596 10.935 12.812 10.455 3.8844-0.28046 5.2684 0.2358 6.9081 2.5767 1.7192 2.4545 1.7687 3.1059 0.30668 4.0318-2.2138 1.402-8.4632 1.3233-12.135-0.15284z" fill="#dd5050"/>
  </g>
  <path d="m224.51 44.694c-3.1379-0.67684-3.4514-0.89484-3.298-2.2935 0.13443-1.2256 3.3452-18.895 4.9311-27.136 0.42863-2.2274-0.58454-2.8966-6.0934-4.0243-7.747-1.5859-7.5185-1.4917-7.5185-3.102 0-0.81693 0.16888-2.3297 0.3753-3.3618l0.37529-1.8765 18.097 3.6567c9.9534 2.0112 18.894 3.9596 19.868 4.3298 1.6322 0.62055 1.7367 0.85708 1.338 3.027-0.23788 1.2946-0.67636 2.6056-0.9744 2.9133-0.31419 0.32437-2.2686 0.12569-4.6514-0.47285-5.8448-1.4682-8.3344-1.3609-9.494 0.40888-0.51935 0.79263-2.1468 7.6016-3.6166 15.131-3.0404 15.576-2.1474 14.352-9.3384 12.8z" fill="#f3cb50" stroke-width=".63046"/>
  <path d="m372.42 114.25c-2.0456-0.30448-3.81-0.64423-3.9207-0.755-0.11077-0.11078 0.0961-3.6866 0.45979-7.9464 0.36366-4.2597 0.51288-7.8933 0.3316-8.0745-0.56921-0.56921-9.3072-1.3959-15.06-1.4247l-5.5165-0.02767v17.184l-5.0446-0.29202c-2.7745-0.16062-5.231-0.4785-5.4589-0.70641s-0.0815-6.4454 0.32536-13.817c0.40686-7.3713 0.73992-15.672 0.74013-18.446 2.1e-4 -2.774 0.24809-5.4348 0.55084-5.9127 0.42654-0.67343 1.49-0.76844 4.7246-0.42205 4.8943 0.52413 6.2156 1.5169 5.787 4.3478-0.1655 1.0929-0.46634 4.1601-0.66853 6.8161l-0.36762 4.8291 9.9509 0.24034c5.473 0.13218 10.164 0.14108 10.424 0.0198 0.26006-0.12131 0.47284-3.4665 0.47284-7.4337v-7.2131l3.3099 0.0068c1.8204 0.0037 4.3998 0.18701 5.732 0.4071l2.422 0.40016-0.35768 2.5876c-0.19672 1.4232-0.67756 9.1129-1.0685 17.088-0.39096 7.9753-0.90592 15.494-1.1443 16.707-0.49709 2.5303-1.0084 2.6721-6.6233 1.8363z" fill="#f3cb50" stroke-width=".63046"/>
 </g>
 <g fill="#fd0201" stroke-width=".63046">
  <path d="m162.22 145.38c-1.4536-1.9802-2.643-3.9558-2.643-4.3904 0-0.43452 1.7732-1.3434 3.9404-2.0197 3.2893-1.0265 4.1487-1.0959 5.2013-0.42038 0.69351 0.4451 1.3376 1.2009 1.4312 1.6796 0.17781 0.90884-4.2075 8.7511-4.8935 8.7511-0.21635 0-1.5827-1.6202-3.0364-3.6003z"/>
  <path d="m275.96 247.95-3.6179-3.4767 4.0881-2.1843c4.0285-2.1524 4.1073-2.1669 5.4015-0.99563 1.6831 1.5232 1.6607 1.8237-0.4722 6.3513l-1.7817 3.782z"/>
  <path d="m273.69 110.54c-1.2136-0.66666-3.0416-1.8967-4.0622-2.7335l-1.8555-1.5213 4.0014-2.9457c2.2008-1.6201 4.3124-2.8434 4.6926-2.7183 1.1798 0.38801 3.258 8.5572 2.489 9.7842-0.9389 1.4981-2.7011 1.5432-5.2653 0.13465z"/>
 </g>
 <g fill="#fa2f07" stroke-width=".63046">
  <path d="m168.6 148.74c0.19516-0.50859 1.1178-2.1334 2.0504-3.6106 1.6177-2.5626 1.7374-2.6299 2.6062-1.4665 1.0706 1.4334 2.2009 3.4259 1.9438 3.4263-0.0989 1.8e-4 -1.7043 0.57974-3.5675 1.2879-2.7099 1.03-3.3167 1.1026-3.0329 0.3629z"/>
  <path d="m283.14 250.03c0-0.95365 2.0839-5.8528 2.4895-5.8528 0.23476 0 1.1885 0.79494 2.1193 1.7666l1.6925 1.7666-2.8523 1.3858c-3.1201 1.5159-3.449 1.6049-3.449 0.93399z"/>
  <path d="m268.63 114.15c-0.38076-1.4737-0.84705-3.2096-1.0362-3.8575-0.33071-1.1328-0.2732-1.1363 1.4977-0.0902 1.0129 0.59833 2.5322 1.6281 3.3761 2.2883l1.5345 1.2004-1.7689 1.5692c-0.97291 0.86306-2.0259 1.5692-2.3399 1.5692-0.31406 0-0.88254-1.2058-1.2633-2.6795z"/>
 </g>
 <g fill="#a01016" stroke-width=".63046">
  <path d="m161.31 134.8c0.94569-1.5657 1.8848-2.8466 2.087-2.8466s1.0131 0.68715 1.8021 1.527l1.4346 1.527-1.7975 0.90636c-0.98862 0.4985-2.5733 1.0923-3.5215 1.3196l-1.724 0.41327z"/>
  <path d="m273.06 240.24c2e-3 -0.43344 0.5852-1.7441 1.2976-2.9126l1.2952-2.1245 3.1202 2.9312-2.3848 1.4437c-2.726 1.6502-3.3314 1.7707-3.3281 0.66208z"/>
  <path d="m280.72 104.75c-0.41218-1.7857-0.6227-3.3734-0.46781-3.5283 0.15488-0.15489 1.6096 0.63209 3.2328 1.7488l2.9512 2.0304-1.8036 1.4752c-0.99195 0.81135-2.1094 1.4854-2.4833 1.4979-0.37388 0.0125-1.017-1.4383-1.4292-3.224z"/>
 </g>
 <g fill="#871011" stroke-width=".63046">
  <path d="m171.35 137.33c-3.9607-5.1454-3.7405-5.7904 1.2096-3.5423 2.8142 1.2781 3.7466 3.4108 2.8906 6.6117-0.43357 1.6211-0.56569 1.5222-4.1001-3.0694z"/>
  <path d="m275.89 115.82c3.3388-2.8133 9.1417-6.6234 9.1417-6.0022 0 0.33093-0.55734 1.9019-1.2385 3.491-1.1692 2.7278-2.6199 3.6667-3.4899 2.2589-0.57061-0.92327-1.5762-0.76907-1.5762 0.2417 0 0.8479-1.8675 1.6469-3.7828 1.6184-0.59918-9e-3 -0.25267-0.59802 0.94569-1.6078z"/>
  <path d="m284.06 239.95c-3.7443-3.1206-5.8104-5.2286-5.1248-5.2286 0.19878 0 1.7979 0.30808 3.5536 0.68462 2.9401 0.63054 3.2941 0.90814 4.4813 3.5142 0.70895 1.5562 1.1892 3.1289 1.0673 3.4948-0.12195 0.36585-1.9118-0.74335-3.9774-2.4649z"/>
 </g>
</svg>
